Patient4_TMGait_0pt7_02_left_25_EMG.mot
version=1
nRows=13
nColumns=33
inDegrees=no
endheader
time	1LAddLong	2LGlutMax	3LGlutMed	4LIliopsoas	5LSemiMemb	6LBicFemLong	7LRecFem	8LVastMed	9LVastLat	10LGasMed	11LTibAnt	12lTibPost	13LPeroneusLong	14LSol	15LExtDigLong	16LFlexDigLong	17RAddLong	18RGlutMax	19RGlutMed	20RIliopsoas	21RSemiMemb	22RBicFemLong	23RRecFem	24RVastMed	25RVastLat	26RGasMed	27RTibAnt	28RTibPost	29RPeroneusLong	30RSol	31RExtDigLong	32RFlexDigLong
29.25	-0.013123	-0.050812	-0.13825	0.001678	-0.021057	-0.034943	-0.13534	0.005188	-0.12421	-0.72708	-0.002136	-0.55512	0.15442	0.34958	0.072937	-0.96359	-0.076447	-0.41611	0.052185	0.19486	0.71289	-0.18875	-0.029755	0.12177	0.14297	-0.005035	0.021973	-0.003357	0.23025	0.22858	-0.006256	-0.009308
29.251	-0.015717	-0.027161	-0.16296	-0.003357	-0.053711	0.003662	-0.16113	0.005951	-0.11368	-0.02594	0.007172	0.043945	0.083008	0.29312	0.066528	-0.16068	-0.036163	-0.4042	0.039215	0.16541	0.65124	-0.23056	-0.065308	0.19073	0.19806	-0.003357	0.032501	-0.001068	0.11948	0.20462	-0.006104	-0.007019
29.252	-0.015869	-0.05188	-0.16251	0.009308	-0.017242	0.058594	-0.1326	0.006409	-0.11704	0.72189	0.010223	0.62241	-0.087433	-0.051727	0.004272	-0.23636	0.001526	-0.23987	0.24536	-0.018463	0.62225	-0.23987	-0.11917	0.21469	0.1062	-0.009308	0.12817	-0.002899	-0.010223	0.21713	-0.006714	-0.012512
29.253	-0.020142	-0.048981	-0.16892	0.006561	0.013428	0.069885	-0.12955	0.004883	-0.1152	0.70221	-0.001526	-0.016937	-0.054169	-0.17181	-0.05127	-0.25116	0.020142	-0.16556	0.24979	-0.15823	0.45731	-0.19745	-0.059662	0.45075	0.067444	-0.006866	0.20752	-0.007935	-0.27268	0.1973	-0.006256	-0.010071
29.254	0.009613	-0.050964	-0.18143	0.007477	0.018005	0.064697	-0.11765	0.005188	-0.10284	-0.076599	-0.011444	-0.2742	-0.041199	-0.85983	-0.089111	0.42908	0.053253	-0.19775	0.70862	-0.10757	0.20676	-0.16205	-0.008392	0.46371	0.31189	-0.006561	0.14023	-0.003357	0.10086	0.14832	-0.006866	-0.002594
29.255	-0.13657	-0.03479	-0.19943	0.014343	-0.003967	0.08194	-0.12985	0.002899	-0.11307	0.060425	-0.010376	-0.22659	-0.032501	-0.075684	-0.079651	0.29785	0.066528	-0.16632	0.54794	0.080566	-0.054169	-0.061035	-0.24033	0.19699	0.34241	-0.000458	0.064087	-0.006104	-0.057678	0.014801	-0.004578	-0.003815
29.256	-0.0177	0.009308	-0.20416	0.012054	-0.025177	0.072174	-0.14221	0.008392	-0.098877	0.29343	-0.005493	0.39978	-0.078583	0.2858	-0.103	0.26566	0.040283	-0.085449	0.40878	0.21561	-0.33814	-0.009918	-0.25559	0.051575	0.21072	-0.001678	0.060425	-0.000763	0.13489	-0.031738	-0.006409	-0.001678
29.257	0.016632	0.050812	-0.2507	-0.004883	-0.023804	0.074005	-0.11032	0.001831	-0.091095	-0.11734	0.006104	0.21332	-0.037994	0.23025	-0.094147	-0.2417	0.031891	-0.15595	0.24002	0.20065	0.075531	0.02533	-0.18509	-0.14435	0.088196	-0.001526	0.092926	-0.003662	0.2356	0.0177	-0.008545	-0.002441
29.258	-0.013733	0.10086	-0.27222	-0.011902	-0.043945	0.010681	-0.084839	0.000458	-0.10864	-0.29846	-0.00412	0.26581	0.064697	-0.12634	-0.09079	0.69672	0.013275	-0.29388	0.23361	0.076447	0.80826	0.000916	-0.2739	-0.071106	0.063477	-0.006714	0.049438	-0.003662	0.13748	0.08667	-0.004883	-0.005951
29.259	-0.014191	0.14984	-0.23972	-0.00061	-0.015564	0.082855	-0.063477	0.00351	-0.11627	-0.26916	0.000458	-0.16159	0.070953	-0.90759	-0.086823	-0.10757	0.003357	-0.51498	0.31174	-0.010071	0.94772	-0.096436	-0.30701	-0.14999	0.34988	-0.012512	-0.072632	-0.003357	0.53299	0.093231	-0.005341	-0.002441
29.26	-0.020599	0.17395	-0.23972	0.00473	0.011292	0.065155	-0.053711	0.003204	-0.11871	-0.21835	0.014648	-0.05661	0.023956	-1.0587	-0.078583	-0.33493	0.052032	-0.71198	-0.19638	-0.023499	0.5983	-0.17853	-0.21805	-0.21774	0.48553	-0.012207	-0.020905	-0.000763	0.69595	-0.035553	-0.007172	-0.001068
29.261	-0.001831	0.17624	-0.25314	0.015869	-0.001068	-0.04776	-0.089417	0.000305	-0.11185	-0.069885	0.012512	-0.36102	0.017395	-0.087738	-0.06073	-0.54474	0.074768	-0.83801	-0.1445	-0.099792	0.41	-0.19898	-0.16983	-0.071716	0.32166	-0.00824	0.071259	-0.000763	-0.30319	-0.10574	-0.006409	0.001373
29.262	-0.011902	0.13718	-0.29175	0.004272	0.047913	-0.15884	-0.076752	-0.002747	-0.10483	-0.079346	0.008545	0.019684	-0.001831	0.42969	-0.072021	-0.091705	0.069275	-0.93536	-0.074615	-0.11307	0.27115	-0.2565	-0.096436	-0.25009	-0.048523	-0.012817	0.14603	0.000305	-1.104	-0.10178	-0.002136	0.007019
